<svg xmlns="http://www.w3.org/2000/svg" width="1.25em" height="1.25em" viewBox="0 0 256 256"><path fill="#fff" d="M255.138 174.711a23.546 23.546 0 0 0-3.2-7.075c.311-1.141.548-2.3.707-3.47c1.029-7.428-1.545-14.232-6.4-19.49c-2.629-2.874-5.446-4.771-8.431-5.936a112.595 112.595 0 0 0 2.956-25.57c0-3.93-.223-7.78-.595-11.574a135.72 135.72 0 0 0-.705-5.67a113.265 113.265 0 0 0-3.794-16.42a113.79 113.79 0 0 0-3.795-10.41a113.866 113.866 0 0 0-7.51-14.605a101.621 101.621 0 0 0-6.1-9.026a85.857 85.857 0 0 0-3.361-4.283a112.337 112.337 0 0 0-11.229-11.793a86.122 86.122 0 0 0-4.119-3.556a101.866 101.866 0 0 0-4.256-3.363a119.498 119.498 0 0 0-9.028-6.1C169.148 5.968 149.06 0 127.582 0C65.069 0 14.403 50.666 14.403 113.178a112.566 112.566 0 0 0 3.01 25.88c-2.685 1.166-5.26 2.982-7.645 5.611c-4.853 5.26-7.428 12.037-6.398 19.466c.155 1.181.392 2.35.705 3.498a23.635 23.635 0 0 0-3.2 7.078c-1.491 5.67-1 10.782.895 15.265c-2.06 5.856-1.545 12.09 1.139 17.514c1.951 3.959 4.745 7.02 8.187 9.759c4.093 3.253 9.217 6.019 15.4 8.67c7.374 3.145 16.372 6.1 20.461 7.184c10.573 2.738 20.71 4.473 30.989 4.557c14.643.136 27.247-3.307 36.272-12.116c4.434.543 8.896.815 13.362.814c4.72-.01 9.435-.308 14.121-.89c9.005 8.865 21.654 12.34 36.347 12.2c10.273-.082 20.41-1.817 30.951-4.56c4.12-1.083 13.114-4.038 20.498-7.181c6.181-2.658 11.304-5.422 15.426-8.672c3.416-2.737 6.206-5.8 8.16-9.759c2.71-5.42 3.199-11.656 1.165-17.514c1.878-4.479 2.366-9.603.875-15.265zm-10.49 14.88c2.077 3.94 2.21 8.395.377 12.541c-2.78 6.288-9.683 11.239-23.096 16.558c-8.337 3.307-15.973 5.42-16.035 5.44c-11.028 2.86-21.007 4.313-29.634 4.313c-14.295 0-24.935-3.945-31.685-11.736a106.288 106.288 0 0 1-34.494.195c-6.755 7.662-17.328 11.54-31.511 11.54c-8.635 0-18.608-1.451-29.634-4.312c-.068-.02-7.7-2.133-16.035-5.44c-13.412-5.317-20.311-10.265-23.096-16.558c-1.833-4.148-1.7-8.601.377-12.542c.193-.365.398-.723.618-1.068a15.912 15.912 0 0 1-2.148-12.855c.825-3.135 2.53-5.743 4.845-7.616a15.868 15.868 0 0 1-2.15-5.994c-.666-4.617.865-9.227 4.313-12.99c2.684-2.925 6.479-4.534 10.682-4.534h.111a105.001 105.001 0 0 1-4.764-31.375C21.689 55.146 68.725 8.11 126.738 8.11c58.025 0 105.049 47.036 105.049 105.048a105.01 105.01 0 0 1-4.797 31.45c.507-.05 1.004-.077 1.492-.077c4.201 0 7.997 1.609 10.68 4.534c3.447 3.755 4.982 8.37 4.314 12.99a15.865 15.865 0 0 1-2.15 5.995c2.314 1.872 4.02 4.48 4.845 7.616a15.935 15.935 0 0 1-2.148 12.855c.22.34.428.699.618 1.064z"/><path fill="none" d="M243.95 188.509a15.937 15.937 0 0 0 2.149-12.856c-.826-3.135-2.531-5.743-4.846-7.616a15.88 15.88 0 0 0 2.15-5.994c.667-4.616-.864-9.227-4.312-12.99c-2.684-2.924-6.48-4.534-10.682-4.534c-.488 0-.984.025-1.491.076a105.028 105.028 0 0 0 4.788-31.449c0-58.012-47.037-105.049-105.05-105.049c-58.012 0-105.048 47.024-105.048 105.049a105.021 105.021 0 0 0 4.764 31.374h-.111c-4.202 0-7.997 1.61-10.68 4.535c-3.446 3.755-4.98 8.368-4.314 12.99a15.857 15.857 0 0 0 2.15 5.993c-2.314 1.874-4.02 4.482-4.844 7.618a15.92 15.92 0 0 0 2.15 12.857a13.54 13.54 0 0 0-.617 1.067c-2.076 3.942-2.21 8.396-.377 12.543c2.778 6.286 9.683 11.239 23.096 16.557c8.337 3.307 15.973 5.42 16.035 5.44c11.028 2.86 21.007 4.314 29.634 4.314c14.183 0 24.761-3.878 31.51-11.542a106.29 106.29 0 0 0 34.495-.195c6.746 7.791 17.39 11.737 31.685 11.737c8.634 0 18.608-1.453 29.634-4.313c.067-.02 7.7-2.134 16.035-5.441c13.413-5.315 20.311-10.269 23.096-16.557c1.833-4.148 1.7-8.602-.377-12.543c-.19-.369-.399-.726-.619-1.067zm-138.722 16.383a42.364 42.364 0 0 1-1.868 2.977c-1.747 2.557-4.044 4.51-6.709 5.963c-5.098 2.778-11.548 3.75-18.098 3.75c-10.352 0-20.97-2.423-26.912-3.966c-.292-.076-36.458-10.293-31.884-18.994c.77-1.462 2.04-2.046 3.636-2.046c6.448 0 18.185 9.601 23.232 9.601c1.126 0 1.922-.48 2.246-1.65c2.15-7.714-32.679-10.955-29.745-22.127c.518-1.976 1.921-2.778 3.896-2.778c8.524-.001 27.658 14.991 31.66 14.991c.308 0 .528-.09.647-.278l.052-.086c1.877-3.101.8-5.356-12.067-13.238l-1.236-.752c-14.158-8.571-24.102-13.723-18.446-19.876c.65-.711 1.57-1.026 2.69-1.026c1.33 0 2.937.445 4.707 1.19c7.478 3.153 17.837 11.754 22.176 15.5a167.653 167.653 0 0 1 2.028 1.79s5.482 5.7 8.797 5.7c.763 0 1.41-.299 1.849-1.043c2.351-3.963-21.828-22.288-23.195-29.846c-.924-5.123.648-7.718 3.558-7.718c1.383 0 3.07.588 4.934 1.77c5.78 3.67 16.943 22.847 21.032 30.306c1.37 2.5 3.708 3.557 5.815 3.557c4.18 0 7.448-4.155.383-9.436c-10.62-7.946-6.893-20.932-1.825-21.728a4.61 4.61 0 0 1 .653-.052c4.609 0 6.642 7.943 6.642 7.943s5.958 14.966 16.197 25.196c9.29 9.284 10.586 16.905 5.175 26.402zm33.102 1.753l-.53.063l-.907.104c-.476.049-.952.096-1.43.14l-.468.043l-.425.036l-.605.049c-.223.016-.445.033-.668.047l-.666.045l-.147.008l-.524.031l-.223.012l-.621.03l-.723.03l-.656.023l-.438.012h-.22c-.138 0-.273.008-.41.01h-.217c-.137 0-.272 0-.41.007l-.555.006h-.778c-.61 0-1.218-.006-1.826-.018l-.492-.01c-.14 0-.28-.008-.42-.012l-.52-.016l-.649-.025l-.583-.025l-.151-.006l-.556-.03c-.154-.009-.308-.016-.461-.026l-.36-.021a99.02 99.02 0 0 1-1.353-.096l-.473-.037l-.596-.051l-.698-.065a57.65 57.65 0 0 1-1.167-.12h-.018c5.68-12.678 2.808-24.512-8.672-35.973c-7.528-7.517-12.542-18.62-13.574-21.057c-2.103-7.215-7.67-15.24-16.917-15.24c-.782.002-1.562.064-2.334.186c-4.05.636-7.59 2.968-10.117 6.476c-2.728-3.394-5.382-6.093-7.781-7.618c-3.617-2.292-7.226-3.456-10.744-3.456c-4.388 0-8.312 1.802-11.047 5.072l-.068.083l-.154-.648l-.006-.027a92.115 92.115 0 0 1-1.31-6.727c0-.017 0-.031-.008-.046l-.077-.511a111.96 111.96 0 0 1-.122-.83c-.032-.23-.064-.46-.094-.688c-.03-.229-.062-.459-.09-.689a69.749 69.749 0 0 1-.16-1.347l-.007-.056a96.879 96.879 0 0 1-.289-3.032l-.043-.585c-.013-.16-.024-.322-.034-.485c0-.037-.005-.076-.007-.11l-.041-.65c-.015-.234-.027-.47-.039-.704a63.699 63.699 0 0 1-.035-.705l-.025-.615l-.007-.187l-.019-.57l-.013-.481c0-.193-.01-.387-.013-.58l-.01-.608c-.002-.202 0-.404-.005-.606c-.006-.204 0-.407 0-.61c0-52.022 42.176-94.198 94.21-94.198c52.033 0 94.21 42.176 94.21 94.197v1.217c0 .203-.005.407-.01.608c0 .17-.007.335-.012.504c0 .15-.006.3-.012.445c0 .19-.011.379-.017.569v.016l-.051 1.238l-.008.137l-.032.616l-.03.489a98.244 98.244 0 0 1-.271 3.47v.015c-.02.217-.042.434-.066.65l-.166 1.51l-.064.507l-.078.594c-.028.217-.057.434-.088.65c-.034.242-.07.484-.105.725l-.087.57l-.102.645c-.035.215-.07.43-.11.644c-.043.214-.075.428-.112.643a68.6 68.6 0 0 1-.235 1.28c-.166.85-.338 1.696-.521 2.541c-.046.21-.093.421-.142.632c-2.651-2.577-6.161-3.98-10.035-3.98c-3.514 0-7.126 1.162-10.742 3.455c-2.4 1.524-5.052 4.224-7.783 7.619c-2.53-3.51-6.07-5.84-10.116-6.478a15.287 15.287 0 0 0-2.334-.184c-9.247 0-14.817 8.021-16.918 15.24c-1.043 2.437-6.052 13.536-13.586 21.07c-11.47 11.433-14.37 23.22-8.773 35.836zm97.255-25.37l-.037.11c-.026.07-.052.142-.08.211a6.524 6.524 0 0 1-.55 1.026a8.23 8.23 0 0 1-.683.884c-.057.064-.112.128-.176.191c-.087.096-.18.189-.272.282c-1.675 1.66-4.226 3.113-7.11 4.448c-.326.148-.657.296-.993.444l-.333.147a66.273 66.273 0 0 1-1.362.58l-.694.287c-1.622.667-3.284 1.303-4.906 1.932l-.692.268l-.686.268c-.455.178-.905.356-1.35.534l-.66.266l-.647.266l-.32.133c-.21.09-.42.176-.626.266c-4.77 2.046-8.201 4.128-7.48 6.712c.02.074.042.143.067.21a2.4 2.4 0 0 0 .262.542c.065.102.14.198.223.285c.847.88 2.39.74 4.335.042c.158-.057.32-.118.483-.183c.111-.042.222-.087.334-.131l.168-.071c.445-.19.916-.4 1.398-.63c.12-.055.243-.11.364-.174c2.378-1.163 5.074-2.73 7.75-4.156c.41-.222.821-.435 1.23-.646a56.644 56.644 0 0 1 2.025-1c2.533-1.192 4.914-2.037 6.83-2.037c.897 0 1.691.184 2.351.607l.11.073a3.61 3.61 0 0 1 1.023 1.101c.053.086.103.174.15.264c.946 1.795.154 3.656-1.698 5.48c-1.779 1.75-4.546 3.466-7.692 5.056c-.233.118-.467.236-.704.35c-9.36 4.597-21.616 8.059-21.79 8.102c-3.267.847-7.938 1.96-13.201 2.791l-.78.12l-.126.02c-1.194.178-2.39.336-3.59.473l-.11.011a84.145 84.145 0 0 1-6.66.505h-.034c-.806.03-1.61.043-2.416.043h-.927a58.62 58.62 0 0 1-3.68-.166c-.028 0-.058 0-.088-.007a47.294 47.294 0 0 1-3.56-.42l-.9-.151c-.138-.025-.273-.05-.409-.077l-.032-.007a34.82 34.82 0 0 1-1.288-.27c-.247-.057-.496-.113-.74-.178l-.147-.039c-.122-.03-.241-.062-.36-.094l-.067-.018l-.384-.11l-.416-.122l-.05-.015l-.362-.11l-.407-.131c-.112-.038-.223-.076-.335-.112l-.245-.086a21.9 21.9 0 0 1-.703-.259l-.221-.085l-.183-.074c-.352-.141-.702-.29-1.05-.445l-.23-.11l-.039-.018c-.082-.038-.163-.077-.245-.112a21.31 21.31 0 0 1-.477-.237l-.047-.024l-.23-.12a18.584 18.584 0 0 1-1.195-.679l-.214-.13c-.11-.068-.211-.136-.317-.204l-.278-.185a9.845 9.845 0 0 1-.3-.207l-.179-.127a16.626 16.626 0 0 1-.557-.416c-.097-.075-.192-.152-.288-.223a17.35 17.35 0 0 1-.625-.525l-.009-.008c-.2-.173-.395-.352-.585-.534l-.01-.013a11.35 11.35 0 0 1-.294-.287c-.095-.098-.192-.195-.286-.293c-.094-.1-.189-.2-.28-.304c-.09-.096-.177-.195-.264-.294l-.03-.034a18.651 18.651 0 0 1-1.258-1.634l-.154-.228c-.102-.15-.203-.302-.302-.453l-.293-.452a37.742 37.742 0 0 1-.712-1.145c-.081-.136-.162-.272-.24-.406c-.043-.073-.084-.148-.125-.222c-.04-.078-.09-.156-.133-.234l-.07-.123a1.212 1.212 0 0 1-.043-.081a13.054 13.054 0 0 1-.246-.451c-.036-.066-.072-.133-.11-.2l-.113-.213l-.11-.212l-.214-.432c-.035-.07-.068-.142-.102-.212a35.534 35.534 0 0 1-.212-.454c-.028-.061-.056-.122-.081-.183a14.154 14.154 0 0 1-.273-.63c-.058-.14-.111-.28-.169-.419c-.16-.41-.31-.824-.448-1.243c-.041-.124-.082-.247-.118-.372c-.09-.282-.17-.566-.243-.854a15.68 15.68 0 0 1-.232-1.011c-.042-.2-.08-.402-.11-.605a15.993 15.993 0 0 1-.194-1.792c0-.066-.007-.133-.008-.199c-.006-.132-.01-.263-.011-.395c-.07-5.31 2.619-10.418 8.365-16.16c10.235-10.226 16.197-25.196 16.197-25.196s.16-.628.495-1.53c.112-.3.228-.598.351-.893c.14-.333.291-.662.453-.985l.047-.095c.208-.413.433-.814.678-1.206c.056-.09.11-.181.175-.27c.181-.272.374-.534.577-.789c.156-.195.323-.384.498-.563c.594-.611 1.272-1.111 2.039-1.378l.097-.031c.064-.021.128-.041.194-.06c.077-.02.154-.039.23-.055l.036-.006a3.85 3.85 0 0 1 .49-.066h.015c.086 0 .172-.009.26-.009c.22.002.44.02.657.053c.922.145 1.8.695 2.557 1.542l.101.12c.247.288.47.596.67.92c.148.24.289.492.422.756c.053.112.104.214.155.324c.025.056.05.11.074.167a12.439 12.439 0 0 1 .745 2.394c.15.758.237 1.526.261 2.298c.01.34.01.682 0 1.03c-.006.132-.012.265-.022.398a14.874 14.874 0 0 1-.956 4.316c-.053.137-.112.276-.166.415a15.371 15.371 0 0 1-.929 1.855c-.2.34-.416.678-.648 1.014l-.141.201a16.83 16.83 0 0 1-1.829 2.148c-.659.66-1.365 1.27-2.112 1.829a17.047 17.047 0 0 0-2.1 1.834c-1.869 1.962-2.304 3.691-1.884 5.002c.05.148.108.294.176.434c.155.305.356.584.598.828l.065.066c.069.066.14.13.214.19l.075.061a4.3 4.3 0 0 0 .573.372c.057.03.11.062.176.092c.275.136.562.246.858.33l.082.02l.11.03l.098.024l.103.022l.103.021l.098.016c.074.014.148.025.221.035l.073.01l.128.014l.08.007l.13.01h.077l.136.006h.432l.123-.006l.142-.009l.172-.016l.162-.02c.036 0 .073-.01.11-.016a6.285 6.285 0 0 0 1.973-.631a6.524 6.524 0 0 0 1.44-.993l.176-.167c.028-.027.056-.053.082-.082a6.26 6.26 0 0 0 .484-.543a7.53 7.53 0 0 0 .707-1.068a283.077 283.077 0 0 1 7.646-13.064l.365-.586l.37-.586c.185-.296.37-.59.555-.88l.188-.291l.374-.583c.502-.777 1.006-1.545 1.513-2.306l.379-.567a133.87 133.87 0 0 1 2.271-3.265l.375-.515a68.432 68.432 0 0 1 2.552-3.308l.352-.42c.057-.07.11-.14.174-.208l.345-.399c.057-.065.111-.13.171-.193l.333-.377l.168-.182c.162-.175.326-.348.492-.52c.112-.11.215-.222.323-.325a12.994 12.994 0 0 1 2.075-1.724l.173-.11l.175-.112c.112-.07.225-.137.34-.2c2.94-1.667 5.373-1.79 6.773-.39c.849.848 1.317 2.254 1.293 4.21c0 .086 0 .172-.008.262v.097c0 .088-.007.179-.014.27c0 .11-.013.222-.024.332c-.012.112-.017.197-.028.295c0 .029-.006.057-.01.086c-.008.087-.02.175-.03.262c0 .027 0 .053-.012.08a4.64 4.64 0 0 1-.051.354a4.89 4.89 0 0 1-.052.324c-.009.062-.021.123-.031.186a5.008 5.008 0 0 1-.126.523c-.096.32-.212.635-.35.94c-.06.134-.123.267-.188.397c-.134.27-.286.546-.453.832c-.083.14-.169.286-.26.431l-.14.222c-.141.222-.29.447-.444.674c-.154.228-.319.46-.497.695c-.23.314-.472.633-.728.956l-.194.245a66.83 66.83 0 0 1-1.684 2.014l-.457.516l-.232.26c-.317.355-.635.707-.956 1.056l-.246.266c-.163.177-.333.356-.496.533c-.167.18-.336.36-.505.539l-.512.539l-.518.54c-.173.181-.347.364-.522.544l-1.056 1.088c-5.04 5.17-10.352 10.322-12.149 13.536c-.12.21-.228.425-.326.645c-.255.585-.361 1.084-.29 1.488c.024.133.072.261.14.377c.102.175.225.337.367.481c.065.065.134.126.208.18c.37.264.817.4 1.27.386h.143l.145-.01l.147-.018l.12-.017a.28.28 0 0 0 .049-.009l.11-.021l.03-.007l.122-.027l.174-.044l.155-.046c.102-.031.204-.066.309-.105c.225-.08.445-.171.66-.274c.054-.027.11-.051.164-.08l.165-.082c.216-.11.431-.227.648-.356c.172-.101.344-.206.516-.316l.166-.111a2.67 2.67 0 0 0 .165-.112l.166-.11l.087-.062l.238-.166c.223-.154.43-.312.642-.472l.019-.014l.333-.259c.456-.36.89-.723 1.281-1.065l.261-.23l.025-.022l.136-.12c.32-.288.606-.556.845-.779l.097-.094l.235-.223l.14-.137l.049-.05l.013-.013l.239-.24l.01-.01l.045-.04c.013-.015.032-.03.053-.048l.018-.016l.047-.043l.252-.222l.142-.128c.07-.06.145-.128.222-.202l.17-.149c.03-.025.06-.053.091-.08l.178-.156l.262-.229l.138-.12c.541-.471 1.2-1.04 1.954-1.68l.31-.26l.512-.43l.522-.437c.684-.567 1.42-1.17 2.198-1.796l.51-.41c.436-.346.883-.7 1.336-1.056c.181-.143.366-.286.555-.427a142.993 142.993 0 0 1 4.677-3.466l.478-.332c.333-.231.667-.46 1-.686l.303-.205c.598-.403 1.2-.797 1.809-1.182l.302-.19l.3-.187c.299-.185.598-.369.894-.547l.297-.176l.596-.347c.195-.113.389-.224.583-.333l.117-.066l.462-.252c.191-.105.384-.205.574-.304l.286-.146l.276-.14a27.885 27.885 0 0 1 1.928-.88c.09-.037.178-.073.266-.112c.175-.073.35-.14.522-.2c.173-.058.343-.119.511-.179c.153-.05.3-.098.445-.143l.048-.015c.078-.023.155-.045.232-.065l.022-.007c.157-.044.313-.085.471-.123h.013c.232-.056.458-.103.68-.14a8.114 8.114 0 0 1 .87-.104c.136-.01.274-.014.411-.014h.105c.139 0 .273.008.406.022c.06 0 .122.011.181.02h.025c.06.006.12.016.18.029c.058.012.117.02.175.034h.02c.057.013.11.029.17.045c.475.128.91.37 1.273.703l.032.032l.063.062l.063.066a6.854 6.854 0 0 1 1.221 1.779l.049.11c.106.249.189.506.247.77c.162.734.118 1.5-.127 2.211c-.105.31-.234.61-.387.899l-.102.184a10.27 10.27 0 0 1-1.366 1.805l-.112.118c-.245.26-.5.512-.762.754c-.084.079-.17.157-.256.235l-.132.12c-.274.242-.553.478-.837.71c-.05.04-.1.079-.149.121c-.197.16-.401.32-.613.482a53.311 53.311 0 0 1-2.226 1.613a91.6 91.6 0 0 1-1.38.923c-.885.58-1.776 1.149-2.676 1.706c-.26.16-.52.323-.787.484c-2.445 1.505-5.156 3.113-8.047 4.862l-.748.455c-.82.5-1.593.977-2.32 1.43l-.367.232l-.693.445a77.86 77.86 0 0 0-.802.514c-.196.126-.388.25-.576.373l-.37.244c-.18.118-.36.236-.538.357l-.174.11c-.184.123-.363.244-.537.363l-.285.194l-.334.233l-.309.215c-.487.342-.968.69-1.445 1.046l-.167.127c-.187.142-.369.284-.544.422l-.229.182c-.385.31-.735.607-1.05.89l-.154.142c-.089.08-.176.162-.258.241l-.17.165l-.08.08c-.179.178-.351.36-.52.548l-.081.095a8.175 8.175 0 0 0-.482.611l-.063.09a5.327 5.327 0 0 0-.426.746l-.042.09l-.026.064l-.022.054l-.028.076c-.009.026-.026.072-.036.112a2.72 2.72 0 0 0-.113.456l-.013.084l-.01.075l-.006.074v.39c0 .032 0 .066.008.1c0 .02.003.04.006.06c0 .031.009.064.012.097l.024.137v.006c.009.044.017.087.028.13c.012.044.023.093.037.139c.04.14.088.28.144.415c0 .01.008.021.012.031l.045.102c.06.142.13.28.204.415l.078.14l.082.142l.086.142a.508.508 0 0 0 .05.066l.028.03l.03.027l.034.026c.022.016.046.03.07.044c.025.01.053.023.08.033c.03.01.06.019.09.026c.717.162 2.19-.432 4.149-1.466l.352-.187l.595-.324l.292-.162c.206-.112.419-.236.634-.36l.394-.222c2.59-1.49 5.683-3.406 8.88-5.275c.299-.175.6-.35.9-.523l.604-.386c.302-.174.603-.345.905-.514a99.139 99.139 0 0 1 3.905-2.106l.59-.3c.393-.194.782-.382 1.166-.566a52.136 52.136 0 0 1 2.256-1.005l.417-.169l.05-.02c2.206-.874 4.206-1.414 5.824-1.414c.35-.003.7.026 1.046.085h.01c.111.02.212.043.314.069h.019c.149.036.295.082.437.139c.113.041.223.09.328.147a3.12 3.12 0 0 1 1.227 1.12c.11.167.204.343.281.527c.046.105.088.215.128.333c.04.12.075.234.11.357a4.863 4.863 0 0 1-.074 2.866z"/><path fill="white" d="M220.83 113.728v-.61c0-52.02-42.163-94.197-94.197-94.197c-52.02 0-94.21 42.177-94.21 94.198l-.002.204v.405c.007.202.01.405.008.608l.007.447l.002.162l.007.221c.002.12.006.237.006.357l.012.483l.02.568l.006.187l.025.588v.027l.035.687v.018c.013.235.025.47.04.703c.012.218.026.434.04.65l.005.04c.01.184.023.37.037.556l.004.048c.012.18.026.36.04.537l.003.035l.025.311c.074.896.161 1.792.261 2.686l.006.056l.075.656l.086.692a85.164 85.164 0 0 0 .304 2.206l.006.034a91.712 91.712 0 0 0 1.39 7.25l.006.029l.04.168l.114.478l.069-.083c2.734-3.27 6.657-5.072 11.047-5.072c3.517 0 7.127 1.163 10.743 3.456c2.4 1.524 5.052 4.224 7.782 7.618c2.525-3.509 6.066-5.84 10.115-6.476a15.156 15.156 0 0 1 2.335-.185c9.244 0 14.817 8.023 16.918 15.24c1.037 2.438 6.047 13.536 13.598 21.057c11.48 11.47 14.357 23.307 8.672 35.973h.018c.388.042.777.082 1.168.118c.232.023.465.045.697.065l.082.007c.17.016.342.031.513.044l.473.038c.45.035.9.066 1.355.096l.358.021l.284.016l.178.01l.554.03l.152.006l.584.025l.648.025l.522.015l.087.004c.11.003.221.008.332.008l.118.003c.733.017 1.466.026 2.199.026h.778l.557-.006c.137-.008.272-.008.409-.008h.216l.188-.003c.073-.003.148-.005.221-.005h.223l.436-.013l.656-.022l.724-.031l.621-.03l.223-.013l.33-.018l.194-.011l.146-.01l.667-.044c.223-.013.445-.03.668-.048l.604-.048l.426-.036l.466-.042a89.584 89.584 0 0 0 2.337-.245l.531-.063c-5.592-12.617-2.697-24.4 8.736-35.824c7.535-7.53 12.542-18.633 13.587-21.07c2.104-7.216 7.667-15.24 16.917-15.24c.782.002 1.563.063 2.335.186c4.046.636 7.587 2.968 10.117 6.476c2.73-3.395 5.382-6.095 7.781-7.619c3.616-2.293 7.228-3.455 10.742-3.455c3.874 0 7.385 1.404 10.037 3.98c.145-.649.286-1.298.42-1.95c.082-.406.163-.813.242-1.222c.097-.502.19-1.007.274-1.512c.022-.137.046-.273.072-.411c.04-.215.077-.428.11-.644l.014-.082l.088-.563l.087-.57l.002-.007c.034-.239.07-.479.103-.718c.026-.182.05-.363.074-.546l.015-.105l.077-.594l.064-.506c.038-.333.076-.666.112-1c.016-.133.03-.268.043-.402l.013-.108c.023-.222.044-.444.064-.666l.05-.517c.103-1.146.186-2.292.251-3.441v-.008l.034-.609l.006-.136l.025-.578c.01-.218.018-.438.026-.66v-.017l.006-.16a9.03 9.03 0 0 0 .011-.409l.003-.056c.005-.127.01-.258.01-.389l.003-.112c.004-.13.008-.26.008-.39l.002-.11c.004-.167.008-.333.008-.5zm-117.553 94.11c7.459-10.941 6.93-19.155-3.306-29.385s-16.196-25.197-16.196-25.197s-2.224-8.691-7.296-7.892c-5.071.798-8.792 13.786 1.826 21.729c10.618 7.949-2.112 13.337-6.199 5.88c-4.088-7.462-15.24-26.64-21.032-30.306c-5.785-3.668-9.854-1.612-8.49 5.948c.678 3.753 6.977 10.157 12.866 16.134c5.971 6.073 11.516 11.71 10.332 13.699c-2.353 3.962-10.64-4.656-10.64-4.656s-25.955-23.617-31.599-17.464c-5.207 5.672 2.823 10.494 15.203 17.924c1.052.633 2.136 1.284 3.246 1.956c14.159 8.572 15.265 10.833 13.251 14.07c-.742 1.2-5.482-1.646-11.311-5.147c-9.939-5.966-23.046-13.835-24.898-6.791c-1.603 6.094 8.038 9.828 16.78 13.213c7.285 2.822 13.947 5.402 12.965 8.905c-1.015 3.631-6.52.603-12.542-2.708c-6.756-3.718-14.158-7.792-16.582-3.195c-4.58 8.689 31.586 18.919 31.884 18.993c11.684 3.031 41.356 9.453 51.735-5.746zm48.055 0c-7.46-10.941-6.93-19.155 3.306-29.385s16.196-25.197 16.196-25.197s2.223-8.691 7.294-7.892c5.072.798 8.794 13.786-1.826 21.729c-10.619 7.943 2.112 13.337 6.2 5.88c4.088-7.462 15.24-26.64 21.02-30.306c5.78-3.667 9.855-1.612 8.492 5.948c-.678 3.753-6.978 10.158-12.866 16.147c-5.97 6.07-11.515 11.708-10.33 13.698c2.351 3.963 10.646-4.66 10.646-4.66s25.954-23.618 31.598-17.465c5.207 5.672-2.824 10.495-15.203 17.925a846.723 846.723 0 0 0-3.245 1.954c-14.158 8.57-15.265 10.833-13.25 14.071c.741 1.198 5.481-1.647 11.31-5.146c9.939-5.967 23.045-13.835 24.898-6.793c1.602 6.094-8.04 9.83-16.781 13.213c-7.285 2.822-13.947 5.401-12.965 8.905c1.015 3.631 6.518.602 12.53-2.71c6.755-3.717 14.158-7.792 16.582-3.194c4.579 8.695-31.586 18.919-31.884 18.993c-11.685 3.04-41.356 9.461-51.723-5.737z"/><path fill="none" d="M157.311 87.475c1.468.52 2.56 2.102 3.6 3.606c1.405 2.035 2.712 3.927 4.719 2.86a13.545 13.545 0 0 0 7.128-13.266a13.546 13.546 0 0 0-5.935-9.956a13.559 13.559 0 0 0-18.015 2.634a13.569 13.569 0 0 0-3.028 7.262a13.56 13.56 0 0 0 1.517 7.721c.93 1.75 2.994.925 5.171.054c1.708-.683 3.486-1.394 4.843-.915m-63.867.001c-1.468.52-2.562 2.102-3.6 3.606c-1.406 2.034-2.713 3.927-4.72 2.86a13.553 13.553 0 0 1-6.92-9.295a13.555 13.555 0 0 1 2.789-11.248a13.557 13.557 0 0 1 23.986 7.216a13.55 13.55 0 0 1-1.52 7.721c-.932 1.75-2.995.924-5.173.053c-1.707-.683-3.484-1.394-4.842-.914zm53.985 58.112c10.122-7.975 13.835-20.995 13.835-29.012c0-6.34-4.266-4.345-11.094-.965l-.384.191c-6.269 3.104-14.618 7.236-23.767 7.236c-9.16 0-17.502-4.133-23.767-7.237c-7.049-3.492-11.47-5.682-11.47.776c0 8.272 3.955 21.852 14.817 29.746a23.55 23.55 0 0 1 14.386-12.165c1.084-.323 2.2 1.543 3.344 3.452c1.103 1.844 2.229 3.728 3.376 3.728c1.22 0 2.422-1.857 3.594-3.67c1.224-1.895 2.418-3.742 3.572-3.373a23.567 23.567 0 0 1 13.562 11.29z"/><path fill="white" d="M147.367 145.624c-5.272 4.154-12.279 6.94-21.405 6.94c-8.573 0-15.277-2.459-20.423-6.202a23.578 23.578 0 0 1 14.387-12.164c2.13-.635 4.384 7.18 6.718 7.18c2.5 0 4.908-7.765 7.168-7.043a23.595 23.595 0 0 1 13.561 11.29z"/><path fill="none" d="M69.217 98.762a8.802 8.802 0 0 1-6.623 1.335a8.806 8.806 0 0 1-6.939-6.931a8.817 8.817 0 0 1 1.328-6.626a8.812 8.812 0 0 1 15.96 6.615a8.812 8.812 0 0 1-3.726 5.607m126.044 0a8.804 8.804 0 0 1-6.623 1.335a8.806 8.806 0 0 1-6.939-6.931a8.812 8.812 0 1 1 13.562 5.596"/></svg>